<?xml version="1.0" encoding="UTF-8" standalone="no"?>
<!DOCTYPE svg PUBLIC "-//W3C//DTD SVG 1.1//EN"
 "http://www.w3.org/Graphics/SVG/1.1/DTD/svg11.dtd">
<!-- Generated by graphviz version 9.0.0 (20230911.1827)
 -->
<!-- Pages: 1 -->
<svg width="2688pt" height="2488pt"
 viewBox="0.00 0.00 2688.05 2487.92" xmlns="http://www.w3.org/2000/svg" xmlns:xlink="http://www.w3.org/1999/xlink">
<g id="graph0" class="graph" transform="scale(1 1) rotate(0) translate(4 2483.92)">
<polygon fill="white" stroke="none" points="-4,4 -4,-2483.92 2684.05,-2483.92 2684.05,4 -4,4"/>
<!-- tema -->
<g id="node1" class="node">
<title>tema</title>
<ellipse fill="red" stroke="red" cx="1341.93" cy="-1287.8" rx="169.82" ry="18"/>
<text text-anchor="middle" x="1341.93" y="-1282.37" font-family="Times New Roman,serif" font-size="14.00">DESENVOLVIMENTO DE SOFTWARE</text>
</g>
<!-- a -->
<g id="node2" class="node">
<title>a</title>
<ellipse fill="orange" stroke="orange" cx="842.98" cy="-1456.73" rx="137.89" ry="18"/>
<text text-anchor="middle" x="842.98" y="-1451.3" font-family="Times New Roman,serif" font-size="14.00">Programação e estrutura de dados</text>
</g>
<!-- tema&#45;&gt;a -->
<g id="edge1" class="edge">
<title>tema&#45;&gt;a</title>
<path fill="none" stroke="black" d="M1289.94,-1305.4C1197.2,-1336.8 1003.66,-1402.33 904.47,-1435.91"/>
<polygon fill="black" stroke="black" points="903.51,-1432.54 895.16,-1439.06 905.76,-1439.17 903.51,-1432.54"/>
</g>
<!-- b -->
<g id="node19" class="node">
<title>b</title>
<ellipse fill="orange" stroke="orange" cx="1758.7" cy="-1002.88" rx="80.5" ry="18"/>
<text text-anchor="middle" x="1758.7" y="-997.46" font-family="Times New Roman,serif" font-size="14.00">Programação Web</text>
</g>
<!-- tema&#45;&gt;b -->
<g id="edge2" class="edge">
<title>tema&#45;&gt;b</title>
<path fill="none" stroke="black" d="M1368.63,-1269.54C1441.32,-1219.85 1642.67,-1082.2 1723.98,-1026.62"/>
<polygon fill="black" stroke="black" points="1725.75,-1029.65 1732.03,-1021.11 1721.8,-1023.87 1725.75,-1029.65"/>
</g>
<!-- c -->
<g id="node29" class="node">
<title>c</title>
<ellipse fill="orange" stroke="orange" cx="1148.91" cy="-1112.64" rx="167.83" ry="18"/>
<text text-anchor="middle" x="1148.91" y="-1107.22" font-family="Times New Roman,serif" font-size="14.00">Desenvolvimento para plataformas móveis</text>
</g>
<!-- tema&#45;&gt;c -->
<g id="edge3" class="edge">
<title>tema&#45;&gt;c</title>
<path fill="none" stroke="black" d="M1322,-1269.71C1287.61,-1238.51 1217.03,-1174.46 1177.44,-1138.53"/>
<polygon fill="black" stroke="black" points="1179.9,-1136.04 1170.14,-1131.91 1175.2,-1141.22 1179.9,-1136.04"/>
</g>
<!-- d -->
<g id="node34" class="node">
<title>d</title>
<ellipse fill="orange" stroke="orange" cx="1200.58" cy="-790.56" rx="96.97" ry="18"/>
<text text-anchor="middle" x="1200.58" y="-785.13" font-family="Times New Roman,serif" font-size="14.00">Engenharia de software</text>
</g>
<!-- tema&#45;&gt;d -->
<g id="edge4" class="edge">
<title>tema&#45;&gt;d</title>
<path fill="none" stroke="black" d="M1336.73,-1269.51C1315.5,-1194.82 1235.23,-912.45 1208.96,-820.04"/>
<polygon fill="black" stroke="black" points="1212.34,-819.13 1206.24,-810.47 1205.61,-821.04 1212.34,-819.13"/>
</g>
<!-- e -->
<g id="node46" class="node">
<title>e</title>
<ellipse fill="orange" stroke="orange" cx="1672.3" cy="-1708.13" rx="71.52" ry="18"/>
<text text-anchor="middle" x="1672.3" y="-1702.7" font-family="Times New Roman,serif" font-size="14.00">Banco de dados</text>
</g>
<!-- tema&#45;&gt;e -->
<g id="edge5" class="edge">
<title>tema&#45;&gt;e</title>
<path fill="none" stroke="black" d="M1356.34,-1306.13C1408.73,-1372.79 1589.28,-1602.5 1651.24,-1681.33"/>
<polygon fill="black" stroke="black" points="1648.32,-1683.28 1657.25,-1688.98 1653.83,-1678.96 1648.32,-1683.28"/>
</g>
<!-- f -->
<g id="node72" class="node">
<title>f</title>
<ellipse fill="orange" stroke="orange" cx="1495.94" cy="-1110.3" rx="204.26" ry="18"/>
<text text-anchor="middle" x="1495.94" y="-1104.88" font-family="Times New Roman,serif" font-size="14.00">Arquitetura e tecnologias de sistemas de informação</text>
</g>
<!-- tema&#45;&gt;f -->
<g id="edge6" class="edge">
<title>tema&#45;&gt;f</title>
<path fill="none" stroke="black" d="M1357.83,-1269.47C1385.11,-1238.03 1440.94,-1173.69 1472.62,-1137.18"/>
<polygon fill="black" stroke="black" points="1475.23,-1139.52 1479.14,-1129.67 1469.94,-1134.93 1475.23,-1139.52"/>
</g>
<!-- a1 -->
<g id="node3" class="node">
<title>a1</title>
<ellipse fill="yellow" stroke="yellow" cx="659.43" cy="-1531.72" rx="169.33" ry="18"/>
<text text-anchor="middle" x="659.43" y="-1526.3" font-family="Times New Roman,serif" font-size="14.00">Linguagens de programação Python e Java</text>
</g>
<!-- a&#45;&gt;a1 -->
<g id="edge7" class="edge">
<title>a&#45;&gt;a1</title>
<path fill="none" stroke="black" d="M800.41,-1474.12C774.49,-1484.71 741.14,-1498.34 713.38,-1509.68"/>
<polygon fill="black" stroke="black" points="712.38,-1506.31 704.44,-1513.33 715.02,-1512.79 712.38,-1506.31"/>
</g>
<!-- a2 -->
<g id="node4" class="node">
<title>a2</title>
<ellipse fill="yellow" stroke="yellow" cx="662.06" cy="-2059.16" rx="87.49" ry="18"/>
<text text-anchor="middle" x="662.06" y="-2053.73" font-family="Times New Roman,serif" font-size="14.00">Orientação a objetos</text>
</g>
<!-- a&#45;&gt;a2 -->
<g id="edge8" class="edge">
<title>a&#45;&gt;a2</title>
<path fill="none" stroke="black" d="M837.46,-1475.09C811.64,-1561.09 702.53,-1924.4 670.77,-2030.16"/>
<polygon fill="black" stroke="black" points="667.49,-2028.91 667.97,-2039.49 674.2,-2030.92 667.49,-2028.91"/>
</g>
<!-- a3 -->
<g id="node7" class="node">
<title>a3</title>
<ellipse fill="yellow" stroke="yellow" cx="833.09" cy="-1773.17" rx="135.89" ry="18"/>
<text text-anchor="middle" x="833.09" y="-1767.75" font-family="Times New Roman,serif" font-size="14.00">Algoritmos de busca e ordenação</text>
</g>
<!-- a&#45;&gt;a3 -->
<g id="edge9" class="edge">
<title>a&#45;&gt;a3</title>
<path fill="none" stroke="black" d="M842.4,-1475.11C840.76,-1527.65 836.04,-1678.84 834.02,-1743.39"/>
<polygon fill="black" stroke="black" points="830.53,-1743.12 833.72,-1753.23 837.53,-1743.34 830.53,-1743.12"/>
</g>
<!-- a4 -->
<g id="node8" class="node">
<title>a4</title>
<ellipse fill="yellow" stroke="yellow" cx="304.8" cy="-1127.66" rx="78.01" ry="18"/>
<text text-anchor="middle" x="304.8" y="-1122.23" font-family="Times New Roman,serif" font-size="14.00">Estruturas lineares</text>
</g>
<!-- a&#45;&gt;a4 -->
<g id="edge10" class="edge">
<title>a&#45;&gt;a4</title>
<path fill="none" stroke="black" d="M813.66,-1438.8C722.49,-1383.06 443.97,-1212.76 342.39,-1150.64"/>
<polygon fill="black" stroke="black" points="344.49,-1147.83 334.13,-1145.59 340.84,-1153.8 344.49,-1147.83"/>
</g>
<!-- a5 -->
<g id="node12" class="node">
<title>a5</title>
<ellipse fill="yellow" stroke="yellow" cx="248.66" cy="-1712.75" rx="40.58" ry="18"/>
<text text-anchor="middle" x="248.66" y="-1707.33" font-family="Times New Roman,serif" font-size="14.00">Árvores</text>
</g>
<!-- a&#45;&gt;a5 -->
<g id="edge11" class="edge">
<title>a&#45;&gt;a5</title>
<path fill="none" stroke="black" d="M802.13,-1474.33C693.1,-1521.29 396.24,-1649.18 288.44,-1695.61"/>
<polygon fill="black" stroke="black" points="287.21,-1692.33 279.41,-1699.5 289.98,-1698.76 287.21,-1692.33"/>
</g>
<!-- a2a -->
<g id="node5" class="node">
<title>a2a</title>
<ellipse fill="green" stroke="green" cx="679.95" cy="-2216.32" rx="77.51" ry="18"/>
<text text-anchor="middle" x="679.95" y="-2210.89" font-family="Times New Roman,serif" font-size="14.00">conceitos básicos</text>
</g>
<!-- a2&#45;&gt;a2a -->
<g id="edge12" class="edge">
<title>a2&#45;&gt;a2a</title>
<path fill="none" stroke="black" d="M664.15,-2077.49C667.21,-2104.35 672.93,-2154.66 676.58,-2186.77"/>
<polygon fill="black" stroke="black" points="673.09,-2187.06 677.7,-2196.6 680.05,-2186.26 673.09,-2187.06"/>
</g>
<!-- a2b -->
<g id="node6" class="node">
<title>a2b</title>
<ellipse fill="green" stroke="green" cx="522.38" cy="-2146.25" rx="81" ry="18"/>
<text text-anchor="middle" x="522.38" y="-2140.83" font-family="Times New Roman,serif" font-size="14.00">padrões de projeto</text>
</g>
<!-- a2&#45;&gt;a2b -->
<g id="edge13" class="edge">
<title>a2&#45;&gt;a2b</title>
<path fill="none" stroke="black" d="M634.13,-2076.57C612.68,-2089.95 582.85,-2108.55 559.4,-2123.17"/>
<polygon fill="black" stroke="black" points="557.71,-2120.1 551.07,-2128.36 561.41,-2126.04 557.71,-2120.1"/>
</g>
<!-- a4a -->
<g id="node9" class="node">
<title>a4a</title>
<ellipse fill="green" stroke="green" cx="172.6" cy="-1204.88" rx="66.53" ry="18"/>
<text text-anchor="middle" x="172.6" y="-1199.46" font-family="Times New Roman,serif" font-size="14.00">lista encadeada</text>
</g>
<!-- a4&#45;&gt;a4a -->
<g id="edge14" class="edge">
<title>a4&#45;&gt;a4a</title>
<path fill="none" stroke="black" d="M275.46,-1144.8C256.37,-1155.95 231.28,-1170.6 210.66,-1182.65"/>
<polygon fill="black" stroke="black" points="209.12,-1179.49 202.25,-1187.56 212.65,-1185.54 209.12,-1179.49"/>
</g>
<!-- a4b -->
<g id="node10" class="node">
<title>a4b</title>
<ellipse fill="green" stroke="green" cx="149.59" cy="-1047.43" rx="28.11" ry="18"/>
<text text-anchor="middle" x="149.59" y="-1042" font-family="Times New Roman,serif" font-size="14.00">pilha</text>
</g>
<!-- a4&#45;&gt;a4b -->
<g id="edge15" class="edge">
<title>a4&#45;&gt;a4b</title>
<path fill="none" stroke="black" d="M272.26,-1110.84C245.58,-1097.05 208.02,-1077.63 181.51,-1063.93"/>
<polygon fill="black" stroke="black" points="183.42,-1060.98 172.93,-1059.5 180.21,-1067.2 183.42,-1060.98"/>
</g>
<!-- a4c -->
<g id="node11" class="node">
<title>a4c</title>
<ellipse fill="green" stroke="green" cx="294.97" cy="-979.21" rx="27" ry="18"/>
<text text-anchor="middle" x="294.97" y="-973.78" font-family="Times New Roman,serif" font-size="14.00">fila</text>
</g>
<!-- a4&#45;&gt;a4c -->
<g id="edge16" class="edge">
<title>a4&#45;&gt;a4c</title>
<path fill="none" stroke="black" d="M303.59,-1109.46C301.94,-1084.41 298.93,-1039.03 296.94,-1009"/>
<polygon fill="black" stroke="black" points="300.44,-1008.82 296.28,-999.07 293.45,-1009.28 300.44,-1008.82"/>
</g>
<!-- a5a -->
<g id="node13" class="node">
<title>a5a</title>
<ellipse fill="green" stroke="green" cx="135.81" cy="-1595" rx="101.96" ry="18"/>
<text text-anchor="middle" x="135.81" y="-1589.58" font-family="Times New Roman,serif" font-size="14.00">formas de representação</text>
</g>
<!-- a5&#45;&gt;a5a -->
<g id="edge17" class="edge">
<title>a5&#45;&gt;a5a</title>
<path fill="none" stroke="black" d="M232.49,-1695.88C213.79,-1676.37 182.79,-1644.02 160.94,-1621.22"/>
<polygon fill="black" stroke="black" points="163.55,-1618.89 154.1,-1614.09 158.5,-1623.73 163.55,-1618.89"/>
</g>
<!-- a5b -->
<g id="node14" class="node">
<title>a5b</title>
<ellipse fill="green" stroke="green" cx="267.96" cy="-1873.82" rx="85.99" ry="18"/>
<text text-anchor="middle" x="267.96" y="-1868.4" font-family="Times New Roman,serif" font-size="14.00">recursão em árvores</text>
</g>
<!-- a5&#45;&gt;a5b -->
<g id="edge18" class="edge">
<title>a5&#45;&gt;a5b</title>
<path fill="none" stroke="black" d="M250.84,-1730.92C254.14,-1758.47 260.45,-1811.11 264.42,-1844.24"/>
<polygon fill="black" stroke="black" points="260.92,-1844.46 265.58,-1853.98 267.87,-1843.63 260.92,-1844.46"/>
</g>
<!-- a5c -->
<g id="node15" class="node">
<title>a5c</title>
<ellipse fill="green" stroke="green" cx="371.4" cy="-1762.1" rx="69.03" ry="18"/>
<text text-anchor="middle" x="371.4" y="-1756.67" font-family="Times New Roman,serif" font-size="14.00">árvores binárias</text>
</g>
<!-- a5&#45;&gt;a5c -->
<g id="edge19" class="edge">
<title>a5&#45;&gt;a5c</title>
<path fill="none" stroke="black" d="M279,-1724.95C292.14,-1730.23 307.85,-1736.55 322.56,-1742.47"/>
<polygon fill="black" stroke="black" points="321.05,-1745.63 331.64,-1746.12 323.67,-1739.14 321.05,-1745.63"/>
</g>
<!-- a5d -->
<g id="node16" class="node">
<title>a5d</title>
<ellipse fill="green" stroke="green" cx="143.79" cy="-1839.94" rx="104.96" ry="18"/>
<text text-anchor="middle" x="143.79" y="-1834.52" font-family="Times New Roman,serif" font-size="14.00">árvores binárias de busca</text>
</g>
<!-- a5&#45;&gt;a5d -->
<g id="edge20" class="edge">
<title>a5&#45;&gt;a5d</title>
<path fill="none" stroke="black" d="M234.52,-1729.91C216.89,-1751.28 186.57,-1788.06 165.88,-1813.16"/>
<polygon fill="black" stroke="black" points="163.35,-1810.72 159.69,-1820.66 168.75,-1815.17 163.35,-1810.72"/>
</g>
<!-- a5e -->
<g id="node17" class="node">
<title>a5e</title>
<ellipse fill="green" stroke="green" cx="280.32" cy="-1578.59" rx="81.5" ry="18"/>
<text text-anchor="middle" x="280.32" y="-1573.16" font-family="Times New Roman,serif" font-size="14.00">filas de prioridades</text>
</g>
<!-- a5&#45;&gt;a5e -->
<g id="edge21" class="edge">
<title>a5&#45;&gt;a5e</title>
<path fill="none" stroke="black" d="M252.99,-1694.38C258.25,-1672.1 267.18,-1634.27 273.4,-1607.93"/>
<polygon fill="black" stroke="black" points="276.8,-1608.75 275.69,-1598.21 269.99,-1607.14 276.8,-1608.75"/>
</g>
<!-- a5f -->
<g id="node18" class="node">
<title>a5f</title>
<ellipse fill="green" stroke="green" cx="85.49" cy="-1715.93" rx="85.49" ry="18"/>
<text text-anchor="middle" x="85.49" y="-1710.51" font-family="Times New Roman,serif" font-size="14.00">árvores balanceadas</text>
</g>
<!-- a5&#45;&gt;a5f -->
<g id="edge22" class="edge">
<title>a5&#45;&gt;a5f</title>
<path fill="none" stroke="black" d="M207.91,-1713.55C199.94,-1713.7 191.28,-1713.87 182.36,-1714.04"/>
<polygon fill="black" stroke="black" points="182.41,-1710.54 172.48,-1714.24 182.55,-1717.54 182.41,-1710.54"/>
</g>
<!-- b1 -->
<g id="node20" class="node">
<title>b1</title>
<ellipse fill="yellow" stroke="yellow" cx="2224.44" cy="-487.12" rx="210.74" ry="18"/>
<text text-anchor="middle" x="2224.44" y="-481.7" font-family="Times New Roman,serif" font-size="14.00">Conceitos fundamentais de programação para a Web.</text>
</g>
<!-- b&#45;&gt;b1 -->
<g id="edge23" class="edge">
<title>b&#45;&gt;b1</title>
<path fill="none" stroke="black" d="M1775,-984.83C1844.65,-907.7 2117.45,-605.6 2200.39,-513.76"/>
<polygon fill="black" stroke="black" points="2202.91,-516.19 2207.02,-506.42 2197.72,-511.49 2202.91,-516.19"/>
</g>
<!-- b2 -->
<g id="node26" class="node">
<title>b2</title>
<ellipse fill="yellow" stroke="yellow" cx="2191.07" cy="-951.67" rx="59.05" ry="18"/>
<text text-anchor="middle" x="2191.07" y="-946.25" font-family="Times New Roman,serif" font-size="14.00">Navegadores</text>
</g>
<!-- b&#45;&gt;b2 -->
<g id="edge24" class="edge">
<title>b&#45;&gt;b2</title>
<path fill="none" stroke="black" d="M1830.58,-994.37C1912.29,-984.69 2044.61,-969.02 2124.18,-959.59"/>
<polygon fill="black" stroke="black" points="2124.51,-963.08 2134.02,-958.43 2123.68,-956.13 2124.51,-963.08"/>
</g>
<!-- b3 -->
<g id="node27" class="node">
<title>b3</title>
<ellipse fill="yellow" stroke="yellow" cx="2341.26" cy="-1025.12" rx="178.81" ry="18"/>
<text text-anchor="middle" x="2341.26" y="-1019.7" font-family="Times New Roman,serif" font-size="14.00">Frameworks de desenvolvimento para a Web</text>
</g>
<!-- b&#45;&gt;b3 -->
<g id="edge25" class="edge">
<title>b&#45;&gt;b3</title>
<path fill="none" stroke="black" d="M1838.48,-1005.93C1921.32,-1009.09 2053.68,-1014.14 2161.81,-1018.27"/>
<polygon fill="black" stroke="black" points="2161.55,-1021.76 2171.68,-1018.65 2161.82,-1014.77 2161.55,-1021.76"/>
</g>
<!-- b4 -->
<g id="node28" class="node">
<title>b4</title>
<ellipse fill="yellow" stroke="yellow" cx="2006.81" cy="-711.08" rx="71.02" ry="18"/>
<text text-anchor="middle" x="2006.81" y="-705.65" font-family="Times New Roman,serif" font-size="14.00">Servidores Web</text>
</g>
<!-- b&#45;&gt;b4 -->
<g id="edge26" class="edge">
<title>b&#45;&gt;b4</title>
<path fill="none" stroke="black" d="M1773.84,-985.07C1815.89,-935.62 1934.22,-796.45 1984.15,-737.74"/>
<polygon fill="black" stroke="black" points="1986.76,-740.07 1990.57,-730.18 1981.42,-735.53 1986.76,-740.07"/>
</g>
<!-- b1a -->
<g id="node21" class="node">
<title>b1a</title>
<ellipse fill="green" stroke="green" cx="2350.34" cy="-371.1" rx="52.56" ry="18"/>
<text text-anchor="middle" x="2350.34" y="-365.67" font-family="Times New Roman,serif" font-size="14.00">Linguagens</text>
</g>
<!-- b1&#45;&gt;b1a -->
<g id="edge27" class="edge">
<title>b1&#45;&gt;b1a</title>
<path fill="none" stroke="black" d="M2244.39,-468.74C2265.76,-449.05 2299.78,-417.69 2323.49,-395.84"/>
<polygon fill="black" stroke="black" points="2325.62,-398.64 2330.6,-389.29 2320.87,-393.49 2325.62,-398.64"/>
</g>
<!-- b1a1 -->
<g id="node22" class="node">
<title>b1a1</title>
<ellipse fill="blue" stroke="blue" cx="2485.15" cy="-462.66" rx="36.59" ry="18"/>
<text text-anchor="middle" x="2485.15" y="-457.23" font-family="Times New Roman,serif" font-size="14.00">HTML</text>
</g>
<!-- b1a&#45;&gt;b1a1 -->
<g id="edge28" class="edge">
<title>b1a&#45;&gt;b1a1</title>
<path fill="none" stroke="black" d="M2374.44,-387.47C2396.67,-402.57 2429.81,-425.07 2454.03,-441.52"/>
<polygon fill="black" stroke="black" points="2452,-444.37 2462.23,-447.09 2455.93,-438.58 2452,-444.37"/>
</g>
<!-- b1a2 -->
<g id="node23" class="node">
<title>b1a2</title>
<ellipse fill="blue" stroke="blue" cx="2404.8" cy="-215.53" rx="30.61" ry="18"/>
<text text-anchor="middle" x="2404.8" y="-210.11" font-family="Times New Roman,serif" font-size="14.00">XML</text>
</g>
<!-- b1a&#45;&gt;b1a2 -->
<g id="edge29" class="edge">
<title>b1a&#45;&gt;b1a2</title>
<path fill="none" stroke="black" d="M2356.69,-352.95C2366.04,-326.25 2383.58,-276.13 2394.7,-244.36"/>
<polygon fill="black" stroke="black" points="2397.98,-245.59 2397.98,-234.99 2391.38,-243.28 2397.98,-245.59"/>
</g>
<!-- b1a3 -->
<g id="node24" class="node">
<title>b1a3</title>
<ellipse fill="blue" stroke="blue" cx="2266.85" cy="-230.53" rx="28.11" ry="18"/>
<text text-anchor="middle" x="2266.85" y="-225.1" font-family="Times New Roman,serif" font-size="14.00">CSS</text>
</g>
<!-- b1a&#45;&gt;b1a3 -->
<g id="edge30" class="edge">
<title>b1a&#45;&gt;b1a3</title>
<path fill="none" stroke="black" d="M2339.59,-353.01C2325.16,-328.71 2299.4,-285.33 2282.72,-257.26"/>
<polygon fill="black" stroke="black" points="2285.92,-255.78 2277.8,-248.97 2279.9,-259.36 2285.92,-255.78"/>
</g>
<!-- b1a4 -->
<g id="node25" class="node">
<title>b1a4</title>
<ellipse fill="blue" stroke="blue" cx="2510.98" cy="-329.16" rx="49.07" ry="18"/>
<text text-anchor="middle" x="2510.98" y="-323.73" font-family="Times New Roman,serif" font-size="14.00">JavaScript</text>
</g>
<!-- b1a&#45;&gt;b1a4 -->
<g id="edge31" class="edge">
<title>b1a&#45;&gt;b1a4</title>
<path fill="none" stroke="black" d="M2392.54,-360.08C2413.05,-354.72 2437.86,-348.25 2459.47,-342.6"/>
<polygon fill="black" stroke="black" points="2460.18,-346.04 2468.98,-340.12 2458.42,-339.26 2460.18,-346.04"/>
</g>
<!-- c1 -->
<g id="node30" class="node">
<title>c1</title>
<ellipse fill="yellow" stroke="yellow" cx="1324.17" cy="-624.63" rx="117.43" ry="18"/>
<text text-anchor="middle" x="1324.17" y="-619.2" font-family="Times New Roman,serif" font-size="14.00">Plataformas de programação</text>
</g>
<!-- c&#45;&gt;c1 -->
<g id="edge32" class="edge">
<title>c&#45;&gt;c1</title>
<path fill="none" stroke="black" d="M1155.46,-1094.4C1181.95,-1020.64 1281.27,-744.08 1313.79,-653.53"/>
<polygon fill="black" stroke="black" points="1316.99,-654.98 1317.08,-644.39 1310.4,-652.61 1316.99,-654.98"/>
</g>
<!-- c2 -->
<g id="node31" class="node">
<title>c2</title>
<ellipse fill="yellow" stroke="yellow" cx="617.32" cy="-802.05" rx="257.65" ry="18"/>
<text text-anchor="middle" x="617.32" y="-796.63" font-family="Times New Roman,serif" font-size="14.00">Emuladores e padrões de programação para smartphones e tablets</text>
</g>
<!-- c&#45;&gt;c2 -->
<g id="edge33" class="edge">
<title>c&#45;&gt;c2</title>
<path fill="none" stroke="black" d="M1118.03,-1094.6C1027.21,-1041.54 760.94,-885.97 658.31,-826"/>
<polygon fill="black" stroke="black" points="660.32,-823.13 649.92,-821.1 656.79,-829.17 660.32,-823.13"/>
</g>
<!-- c3 -->
<g id="node32" class="node">
<title>c3</title>
<ellipse fill="yellow" stroke="yellow" cx="954.5" cy="-602.83" rx="200.76" ry="18"/>
<text text-anchor="middle" x="954.5" y="-597.4" font-family="Times New Roman,serif" font-size="14.00">Principais componentes de interface com o usuário</text>
</g>
<!-- c&#45;&gt;c3 -->
<g id="edge34" class="edge">
<title>c&#45;&gt;c3</title>
<path fill="none" stroke="black" d="M1141.88,-1094.2C1112.73,-1017.77 1001.31,-725.57 965.59,-631.9"/>
<polygon fill="black" stroke="black" points="968.9,-630.76 962.07,-622.66 962.36,-633.25 968.9,-630.76"/>
</g>
<!-- c4 -->
<g id="node33" class="node">
<title>c4</title>
<ellipse fill="yellow" stroke="yellow" cx="690.23" cy="-1056.31" rx="235.19" ry="18"/>
<text text-anchor="middle" x="690.23" y="-1050.88" font-family="Times New Roman,serif" font-size="14.00">Tecnologias de persistência de daos em dispositivos móveis</text>
</g>
<!-- c&#45;&gt;c4 -->
<g id="edge35" class="edge">
<title>c&#45;&gt;c4</title>
<path fill="none" stroke="black" d="M1036.7,-1098.86C973.77,-1091.13 894.75,-1081.43 828.07,-1073.24"/>
<polygon fill="black" stroke="black" points="828.91,-1069.81 818.56,-1072.07 828.06,-1076.76 828.91,-1069.81"/>
</g>
<!-- d1 -->
<g id="node35" class="node">
<title>d1</title>
<ellipse fill="yellow" stroke="yellow" cx="850.66" cy="-749.14" rx="70.52" ry="18"/>
<text text-anchor="middle" x="850.66" y="-743.71" font-family="Times New Roman,serif" font-size="14.00">Processos ágeis</text>
</g>
<!-- d&#45;&gt;d1 -->
<g id="edge36" class="edge">
<title>d&#45;&gt;d1</title>
<path fill="none" stroke="black" d="M1118.1,-780.8C1060.06,-773.93 982.98,-764.8 926.48,-758.11"/>
<polygon fill="black" stroke="black" points="926.96,-754.65 916.62,-756.95 926.14,-761.6 926.96,-754.65"/>
</g>
<!-- d2 -->
<g id="node36" class="node">
<title>d2</title>
<ellipse fill="yellow" stroke="yellow" cx="1488.96" cy="-485.43" rx="100.96" ry="18"/>
<text text-anchor="middle" x="1488.96" y="-480.01" font-family="Times New Roman,serif" font-size="14.00">Engenharia de requisitos</text>
</g>
<!-- d&#45;&gt;d2 -->
<g id="edge37" class="edge">
<title>d&#45;&gt;d2</title>
<path fill="none" stroke="black" d="M1217.76,-772.39C1266.64,-720.66 1406.7,-572.47 1464.03,-511.8"/>
<polygon fill="black" stroke="black" points="1466.51,-514.28 1470.83,-504.61 1461.42,-509.48 1466.51,-514.28"/>
</g>
<!-- d3 -->
<g id="node37" class="node">
<title>d3</title>
<ellipse fill="yellow" stroke="yellow" cx="1194.58" cy="-374.97" rx="114.44" ry="18"/>
<text text-anchor="middle" x="1194.58" y="-369.54" font-family="Times New Roman,serif" font-size="14.00">Ideação e especificação ágil</text>
</g>
<!-- d&#45;&gt;d3 -->
<g id="edge38" class="edge">
<title>d&#45;&gt;d3</title>
<path fill="none" stroke="black" d="M1200.32,-772.17C1199.37,-706.72 1196.17,-484.79 1195.01,-404.37"/>
<polygon fill="black" stroke="black" points="1198.51,-404.61 1194.87,-394.66 1191.51,-404.71 1198.51,-404.61"/>
</g>
<!-- d4 -->
<g id="node38" class="node">
<title>d4</title>
<ellipse fill="yellow" stroke="yellow" cx="1527.78" cy="-296.64" rx="162.84" ry="18"/>
<text text-anchor="middle" x="1527.78" y="-291.22" font-family="Times New Roman,serif" font-size="14.00">Arquitetura MVC e princípios de projeto</text>
</g>
<!-- d&#45;&gt;d4 -->
<g id="edge39" class="edge">
<title>d&#45;&gt;d4</title>
<path fill="none" stroke="black" d="M1212.61,-772.39C1262.02,-697.82 1449.47,-414.86 1509.3,-324.53"/>
<polygon fill="black" stroke="black" points="1512.2,-326.5 1514.8,-316.23 1506.36,-322.64 1512.2,-326.5"/>
</g>
<!-- d5 -->
<g id="node39" class="node">
<title>d5</title>
<ellipse fill="yellow" stroke="yellow" cx="641.52" cy="-588.54" rx="69.03" ry="18"/>
<text text-anchor="middle" x="641.52" y="-583.12" font-family="Times New Roman,serif" font-size="14.00">Testes unitários</text>
</g>
<!-- d&#45;&gt;d5 -->
<g id="edge40" class="edge">
<title>d&#45;&gt;d5</title>
<path fill="none" stroke="black" d="M1155.31,-774.2C1052.52,-737.06 802.05,-646.55 693.32,-607.26"/>
<polygon fill="black" stroke="black" points="694.65,-604.02 684.05,-603.91 692.27,-610.6 694.65,-604.02"/>
</g>
<!-- d6 -->
<g id="node40" class="node">
<title>d6</title>
<ellipse fill="yellow" stroke="yellow" cx="1367.92" cy="-227.47" rx="129.41" ry="18"/>
<text text-anchor="middle" x="1367.92" y="-222.04" font-family="Times New Roman,serif" font-size="14.00">Revisões de software modernas</text>
</g>
<!-- d&#45;&gt;d6 -->
<g id="edge41" class="edge">
<title>d&#45;&gt;d6</title>
<path fill="none" stroke="black" d="M1206.05,-772.14C1230.44,-690.1 1329.29,-357.47 1359.26,-256.6"/>
<polygon fill="black" stroke="black" points="1362.56,-257.78 1362.06,-247.19 1355.85,-255.78 1362.56,-257.78"/>
</g>
<!-- d7 -->
<g id="node41" class="node">
<title>d7</title>
<ellipse fill="yellow" stroke="yellow" cx="928.68" cy="-167.27" rx="41.58" ry="18"/>
<text text-anchor="middle" x="928.68" y="-161.84" font-family="Times New Roman,serif" font-size="14.00">DevOps</text>
</g>
<!-- d&#45;&gt;d7 -->
<g id="edge42" class="edge">
<title>d&#45;&gt;d7</title>
<path fill="none" stroke="black" d="M1192.59,-772.24C1154.13,-684.07 987.98,-303.21 941.06,-195.65"/>
<polygon fill="black" stroke="black" points="944.35,-194.44 937.15,-186.67 937.94,-197.24 944.35,-194.44"/>
</g>
<!-- d8 -->
<g id="node45" class="node">
<title>d8</title>
<ellipse fill="yellow" stroke="yellow" cx="785.18" cy="-484.19" rx="83.5" ry="18"/>
<text text-anchor="middle" x="785.18" y="-478.77" font-family="Times New Roman,serif" font-size="14.00">Testes de aceitação</text>
</g>
<!-- d&#45;&gt;d8 -->
<g id="edge43" class="edge">
<title>d&#45;&gt;d8</title>
<path fill="none" stroke="black" d="M1176.45,-772.76C1105.82,-720.67 899.37,-568.41 818.36,-508.66"/>
<polygon fill="black" stroke="black" points="820.46,-505.86 810.33,-502.74 816.3,-511.5 820.46,-505.86"/>
</g>
<!-- d7a -->
<g id="node42" class="node">
<title>d7a</title>
<ellipse fill="green" stroke="green" cx="1032.46" cy="-44.41" rx="83.5" ry="18"/>
<text text-anchor="middle" x="1032.46" y="-38.98" font-family="Times New Roman,serif" font-size="14.00">controle de versões</text>
</g>
<!-- d7&#45;&gt;d7a -->
<g id="edge44" class="edge">
<title>d7&#45;&gt;d7a</title>
<path fill="none" stroke="black" d="M943.33,-149.93C960.67,-129.4 989.74,-94.99 1009.94,-71.06"/>
<polygon fill="black" stroke="black" points="1012.45,-73.51 1016.23,-63.62 1007.11,-69 1012.45,-73.51"/>
</g>
<!-- d7b -->
<g id="node43" class="node">
<title>d7b</title>
<ellipse fill="green" stroke="green" cx="864.63" cy="-18" rx="83.5" ry="18"/>
<text text-anchor="middle" x="864.63" y="-12.57" font-family="Times New Roman,serif" font-size="14.00">integração contínua</text>
</g>
<!-- d7&#45;&gt;d7b -->
<g id="edge45" class="edge">
<title>d7&#45;&gt;d7b</title>
<path fill="none" stroke="black" d="M920.95,-149.26C909.99,-123.71 889.81,-76.68 876.81,-46.4"/>
<polygon fill="black" stroke="black" points="880.14,-45.27 872.98,-37.46 873.71,-48.03 880.14,-45.27"/>
</g>
<!-- d7c -->
<g id="node44" class="node">
<title>d7c</title>
<ellipse fill="green" stroke="green" cx="768.23" cy="-155.71" rx="89.99" ry="18"/>
<text text-anchor="middle" x="768.23" y="-150.29" font-family="Times New Roman,serif" font-size="14.00">deployment contínuo</text>
</g>
<!-- d7&#45;&gt;d7c -->
<g id="edge46" class="edge">
<title>d7&#45;&gt;d7c</title>
<path fill="none" stroke="black" d="M887.36,-164.29C880.23,-163.78 872.56,-163.23 864.66,-162.66"/>
<polygon fill="black" stroke="black" points="865.13,-159.18 854.91,-161.96 864.63,-166.17 865.13,-159.18"/>
</g>
<!-- e1 -->
<g id="node47" class="node">
<title>e1</title>
<ellipse fill="yellow" stroke="yellow" cx="2097.57" cy="-1498.58" rx="111.44" ry="18"/>
<text text-anchor="middle" x="2097.57" y="-1493.15" font-family="Times New Roman,serif" font-size="14.00">Projeto de banco de dados</text>
</g>
<!-- e&#45;&gt;e1 -->
<g id="edge47" class="edge">
<title>e&#45;&gt;e1</title>
<path fill="none" stroke="black" d="M1705.32,-1691.86C1780.72,-1654.7 1965.71,-1563.55 2051.94,-1521.06"/>
<polygon fill="black" stroke="black" points="2053.42,-1524.24 2060.84,-1516.68 2050.32,-1517.96 2053.42,-1524.24"/>
</g>
<!-- e2 -->
<g id="node51" class="node">
<title>e2</title>
<ellipse fill="yellow" stroke="yellow" cx="1419.42" cy="-1870.99" rx="181.8" ry="18"/>
<text text-anchor="middle" x="1419.42" y="-1865.56" font-family="Times New Roman,serif" font-size="14.00">A abordagem Entidade&#45;Relacionamento (E&#45;R)</text>
</g>
<!-- e&#45;&gt;e2 -->
<g id="edge48" class="edge">
<title>e&#45;&gt;e2</title>
<path fill="none" stroke="black" d="M1645.72,-1725.25C1600.57,-1754.33 1508.78,-1813.44 1457.05,-1846.75"/>
<polygon fill="black" stroke="black" points="1455.35,-1843.68 1448.84,-1852.04 1459.14,-1849.57 1455.35,-1843.68"/>
</g>
<!-- e3 -->
<g id="node52" class="node">
<title>e3</title>
<ellipse fill="yellow" stroke="yellow" cx="1845.51" cy="-2271.65" rx="77.01" ry="18"/>
<text text-anchor="middle" x="1845.51" y="-2266.22" font-family="Times New Roman,serif" font-size="14.00">Modelo relacional</text>
</g>
<!-- e&#45;&gt;e3 -->
<g id="edge49" class="edge">
<title>e&#45;&gt;e3</title>
<path fill="none" stroke="black" d="M1677.97,-1726.56C1703.2,-1808.66 1805.52,-2141.55 1836.55,-2242.49"/>
<polygon fill="black" stroke="black" points="1833.16,-2243.38 1839.44,-2251.91 1839.85,-2241.33 1833.16,-2243.38"/>
</g>
<!-- e4 -->
<g id="node56" class="node">
<title>e4</title>
<ellipse fill="yellow" stroke="yellow" cx="1460.39" cy="-1705.27" rx="156.35" ry="18"/>
<text text-anchor="middle" x="1460.39" y="-1699.84" font-family="Times New Roman,serif" font-size="14.00">Depedências funcionais e normalização</text>
</g>
<!-- e&#45;&gt;e4 -->
<g id="edge50" class="edge">
<title>e&#45;&gt;e4</title>
<path fill="none" stroke="black" d="M1600.56,-1707.16C1600.5,-1707.16 1600.44,-1707.16 1600.38,-1707.16"/>
<polygon fill="black" stroke="black" points="1611.76,-1703.82 1601.71,-1707.17 1611.66,-1710.81 1611.76,-1703.82"/>
</g>
<!-- e5 -->
<g id="node57" class="node">
<title>e5</title>
<ellipse fill="yellow" stroke="yellow" cx="1395.72" cy="-2298.74" rx="73.02" ry="18"/>
<text text-anchor="middle" x="1395.72" y="-2293.31" font-family="Times New Roman,serif" font-size="14.00">Linguagens SQL</text>
</g>
<!-- e&#45;&gt;e5 -->
<g id="edge51" class="edge">
<title>e&#45;&gt;e5</title>
<path fill="none" stroke="black" d="M1663.72,-1726.45C1623.96,-1811.36 1457.49,-2166.83 1409.02,-2270.34"/>
<polygon fill="black" stroke="black" points="1405.92,-2268.72 1404.85,-2279.26 1412.26,-2271.69 1405.92,-2268.72"/>
</g>
<!-- e6 -->
<g id="node63" class="node">
<title>e6</title>
<ellipse fill="yellow" stroke="yellow" cx="1727.7" cy="-1894.59" rx="165.83" ry="18"/>
<text text-anchor="middle" x="1727.7" y="-1889.17" font-family="Times New Roman,serif" font-size="14.00">Sistemas de gerência de bancos de dados</text>
</g>
<!-- e&#45;&gt;e6 -->
<g id="edge52" class="edge">
<title>e&#45;&gt;e6</title>
<path fill="none" stroke="black" d="M1677.71,-1726.35C1687.35,-1758.79 1707.57,-1826.82 1719.12,-1865.7"/>
<polygon fill="black" stroke="black" points="1715.63,-1866.26 1721.84,-1874.85 1722.34,-1864.27 1715.63,-1866.26"/>
</g>
<!-- e7 -->
<g id="node64" class="node">
<title>e7</title>
<ellipse fill="yellow" stroke="yellow" cx="2264.16" cy="-1938.51" rx="107.45" ry="18"/>
<text text-anchor="middle" x="2264.16" y="-1933.08" font-family="Times New Roman,serif" font-size="14.00">Bancos de dados NoSQL</text>
</g>
<!-- e&#45;&gt;e7 -->
<g id="edge53" class="edge">
<title>e&#45;&gt;e7</title>
<path fill="none" stroke="black" d="M1711.59,-1723.42C1814.62,-1763.52 2092.7,-1871.77 2210.39,-1917.57"/>
<polygon fill="black" stroke="black" points="2208.93,-1920.76 2219.52,-1921.13 2211.47,-1914.24 2208.93,-1920.76"/>
</g>
<!-- e1a -->
<g id="node48" class="node">
<title>e1a</title>
<ellipse fill="green" stroke="green" cx="2018.49" cy="-1588.33" rx="77.01" ry="18"/>
<text text-anchor="middle" x="2018.49" y="-1582.9" font-family="Times New Roman,serif" font-size="14.00">projeto conceitual</text>
</g>
<!-- e1&#45;&gt;e1a -->
<g id="edge54" class="edge">
<title>e1&#45;&gt;e1a</title>
<path fill="none" stroke="black" d="M2081.57,-1516.74C2070.13,-1529.72 2054.56,-1547.39 2041.76,-1561.92"/>
<polygon fill="black" stroke="black" points="2039.19,-1559.55 2035.2,-1569.36 2044.44,-1564.17 2039.19,-1559.55"/>
</g>
<!-- e1b -->
<g id="node49" class="node">
<title>e1b</title>
<ellipse fill="green" stroke="green" cx="2176.39" cy="-1377.2" rx="33.6" ry="18"/>
<text text-anchor="middle" x="2176.39" y="-1371.77" font-family="Times New Roman,serif" font-size="14.00">lógico</text>
</g>
<!-- e1&#45;&gt;e1b -->
<g id="edge55" class="edge">
<title>e1&#45;&gt;e1b</title>
<path fill="none" stroke="black" d="M2109.37,-1480.41C2122.54,-1460.13 2143.97,-1427.12 2159.04,-1403.9"/>
<polygon fill="black" stroke="black" points="2161.94,-1405.88 2164.45,-1395.58 2156.07,-1402.06 2161.94,-1405.88"/>
</g>
<!-- e1c -->
<g id="node50" class="node">
<title>e1c</title>
<ellipse fill="green" stroke="green" cx="2257.61" cy="-1529.95" rx="32.1" ry="18"/>
<text text-anchor="middle" x="2257.61" y="-1524.52" font-family="Times New Roman,serif" font-size="14.00">físico</text>
</g>
<!-- e1&#45;&gt;e1c -->
<g id="edge56" class="edge">
<title>e1&#45;&gt;e1c</title>
<path fill="none" stroke="black" d="M2169.63,-1512.7C2185.61,-1515.83 2202.01,-1519.05 2216.26,-1521.84"/>
<polygon fill="black" stroke="black" points="2215.2,-1525.2 2225.69,-1523.69 2216.55,-1518.33 2215.2,-1525.2"/>
</g>
<!-- e3a -->
<g id="node53" class="node">
<title>e3a</title>
<ellipse fill="green" stroke="green" cx="1989.85" cy="-2310.65" rx="46.57" ry="18"/>
<text text-anchor="middle" x="1989.85" y="-2305.22" font-family="Times New Roman,serif" font-size="14.00">conceitos</text>
</g>
<!-- e3&#45;&gt;e3a -->
<g id="edge57" class="edge">
<title>e3&#45;&gt;e3a</title>
<path fill="none" stroke="black" d="M1896.81,-2285.51C1911,-2289.34 1926.37,-2293.5 1940.46,-2297.3"/>
<polygon fill="black" stroke="black" points="1939.4,-2300.64 1949.97,-2299.87 1941.23,-2293.88 1939.4,-2300.64"/>
</g>
<!-- e3b -->
<g id="node54" class="node">
<title>e3b</title>
<ellipse fill="green" stroke="green" cx="1752.78" cy="-2391.05" rx="100.96" ry="18"/>
<text text-anchor="middle" x="1752.78" y="-2385.62" font-family="Times New Roman,serif" font-size="14.00">restrições de integridade</text>
</g>
<!-- e3&#45;&gt;e3b -->
<g id="edge58" class="edge">
<title>e3&#45;&gt;e3b</title>
<path fill="none" stroke="black" d="M1831.42,-2289.78C1816.11,-2309.51 1791.45,-2341.25 1773.83,-2363.93"/>
<polygon fill="black" stroke="black" points="1771.29,-2361.5 1767.92,-2371.55 1776.82,-2365.8 1771.29,-2361.5"/>
</g>
<!-- e3c -->
<g id="node55" class="node">
<title>e3c</title>
<ellipse fill="green" stroke="green" cx="1895.78" cy="-2443.44" rx="219.72" ry="18"/>
<text text-anchor="middle" x="1895.78" y="-2438.02" font-family="Times New Roman,serif" font-size="14.00">mapeamento de modelos E&#45;R para esquemas relacionais</text>
</g>
<!-- e3&#45;&gt;e3c -->
<g id="edge59" class="edge">
<title>e3&#45;&gt;e3c</title>
<path fill="none" stroke="black" d="M1850.89,-2290.03C1859.62,-2319.87 1876.94,-2379.06 1887.33,-2414.56"/>
<polygon fill="black" stroke="black" points="1883.85,-2415.12 1890.01,-2423.74 1890.56,-2413.16 1883.85,-2415.12"/>
</g>
<!-- e5a -->
<g id="node58" class="node">
<title>e5a</title>
<ellipse fill="green" stroke="green" cx="1293.36" cy="-2210.41" rx="29.11" ry="18"/>
<text text-anchor="middle" x="1293.36" y="-2204.99" font-family="Times New Roman,serif" font-size="14.00">DDL</text>
</g>
<!-- e5&#45;&gt;e5a -->
<g id="edge60" class="edge">
<title>e5&#45;&gt;e5a</title>
<path fill="none" stroke="black" d="M1375.5,-2281.29C1359.33,-2267.33 1336.54,-2247.67 1319.07,-2232.6"/>
<polygon fill="black" stroke="black" points="1321.49,-2230.06 1311.63,-2226.18 1316.92,-2235.36 1321.49,-2230.06"/>
</g>
<!-- e5b -->
<g id="node59" class="node">
<title>e5b</title>
<ellipse fill="green" stroke="green" cx="1487.24" cy="-2436.99" rx="30.61" ry="18"/>
<text text-anchor="middle" x="1487.24" y="-2431.56" font-family="Times New Roman,serif" font-size="14.00">DML</text>
</g>
<!-- e5&#45;&gt;e5b -->
<g id="edge61" class="edge">
<title>e5&#45;&gt;e5b</title>
<path fill="none" stroke="black" d="M1407.69,-2316.81C1423.48,-2340.67 1451.41,-2382.86 1469.62,-2410.37"/>
<polygon fill="black" stroke="black" points="1466.58,-2412.11 1475.01,-2418.52 1472.41,-2408.25 1466.58,-2412.11"/>
</g>
<!-- e5c -->
<g id="node60" class="node">
<title>e5c</title>
<ellipse fill="green" stroke="green" cx="1251.66" cy="-2363.5" rx="100.96" ry="18"/>
<text text-anchor="middle" x="1251.66" y="-2358.07" font-family="Times New Roman,serif" font-size="14.00">restrições de integridade</text>
</g>
<!-- e5&#45;&gt;e5c -->
<g id="edge62" class="edge">
<title>e5&#45;&gt;e5c</title>
<path fill="none" stroke="black" d="M1360.11,-2314.75C1341.96,-2322.91 1319.62,-2332.95 1299.95,-2341.79"/>
<polygon fill="black" stroke="black" points="1298.7,-2338.51 1291.02,-2345.81 1301.57,-2344.9 1298.7,-2338.51"/>
</g>
<!-- e5d -->
<g id="node61" class="node">
<title>e5d</title>
<ellipse fill="green" stroke="green" cx="1520.08" cy="-2270.9" rx="34.1" ry="18"/>
<text text-anchor="middle" x="1520.08" y="-2265.47" font-family="Times New Roman,serif" font-size="14.00">visões</text>
</g>
<!-- e5&#45;&gt;e5d -->
<g id="edge63" class="edge">
<title>e5&#45;&gt;e5d</title>
<path fill="none" stroke="black" d="M1450.63,-2286.45C1459.49,-2284.46 1468.54,-2282.44 1477.07,-2280.53"/>
<polygon fill="black" stroke="black" points="1477.82,-2283.95 1486.81,-2278.35 1476.29,-2277.11 1477.82,-2283.95"/>
</g>
<!-- e5e -->
<g id="node62" class="node">
<title>e5e</title>
<ellipse fill="green" stroke="green" cx="1355.14" cy="-2461.92" rx="92.48" ry="18"/>
<text text-anchor="middle" x="1355.14" y="-2456.5" font-family="Times New Roman,serif" font-size="14.00">autorização de acesso</text>
</g>
<!-- e5&#45;&gt;e5e -->
<g id="edge64" class="edge">
<title>e5&#45;&gt;e5e</title>
<path fill="none" stroke="black" d="M1391.15,-2317.14C1384.14,-2345.32 1370.68,-2399.43 1362.35,-2432.92"/>
<polygon fill="black" stroke="black" points="1359.02,-2431.82 1360.01,-2442.37 1365.82,-2433.51 1359.02,-2431.82"/>
</g>
<!-- e7a -->
<g id="node65" class="node">
<title>e7a</title>
<ellipse fill="green" stroke="green" cx="2183.16" cy="-2046.07" rx="87.99" ry="18"/>
<text text-anchor="middle" x="2183.16" y="-2040.65" font-family="Times New Roman,serif" font-size="14.00">definição de NoSQL</text>
</g>
<!-- e7&#45;&gt;e7a -->
<g id="edge65" class="edge">
<title>e7&#45;&gt;e7a</title>
<path fill="none" stroke="black" d="M2250.42,-1956.75C2237.55,-1973.85 2218.13,-1999.63 2203.47,-2019.11"/>
<polygon fill="black" stroke="black" points="2200.83,-2016.79 2197.61,-2026.88 2206.42,-2021 2200.83,-2016.79"/>
</g>
<!-- e7b -->
<g id="node66" class="node">
<title>e7b</title>
<ellipse fill="green" stroke="green" cx="2295.4" cy="-1806.73" rx="95.97" ry="18"/>
<text text-anchor="middle" x="2295.4" y="-1801.3" font-family="Times New Roman,serif" font-size="14.00">orientação à agregados</text>
</g>
<!-- e7&#45;&gt;e7b -->
<g id="edge66" class="edge">
<title>e7&#45;&gt;e7b</title>
<path fill="none" stroke="black" d="M2268.51,-1920.18C2273.68,-1898.35 2282.39,-1861.6 2288.5,-1835.86"/>
<polygon fill="black" stroke="black" points="2291.84,-1836.91 2290.74,-1826.37 2285.03,-1835.29 2291.84,-1836.91"/>
</g>
<!-- e7c -->
<g id="node67" class="node">
<title>e7c</title>
<ellipse fill="green" stroke="green" cx="2427.5" cy="-2009.5" rx="99.97" ry="18"/>
<text text-anchor="middle" x="2427.5" y="-2004.07" font-family="Times New Roman,serif" font-size="14.00">tipos de SGBD NoSQL</text>
</g>
<!-- e7&#45;&gt;e7c -->
<g id="edge67" class="edge">
<title>e7&#45;&gt;e7c</title>
<path fill="none" stroke="black" d="M2303.7,-1955.69C2326.07,-1965.41 2354.25,-1977.66 2378.07,-1988.01"/>
<polygon fill="black" stroke="black" points="2376.37,-1991.09 2386.94,-1991.87 2379.16,-1984.67 2376.37,-1991.09"/>
</g>
<!-- e7c1 -->
<g id="node68" class="node">
<title>e7c1</title>
<ellipse fill="blue" stroke="blue" cx="2542.09" cy="-1888.41" rx="53.06" ry="18"/>
<text text-anchor="middle" x="2542.09" y="-1882.98" font-family="Times New Roman,serif" font-size="14.00">chave valor</text>
</g>
<!-- e7c&#45;&gt;e7c1 -->
<g id="edge68" class="edge">
<title>e7c&#45;&gt;e7c1</title>
<path fill="none" stroke="black" d="M2444.66,-1991.37C2464.03,-1970.89 2495.72,-1937.41 2517.67,-1914.21"/>
<polygon fill="black" stroke="black" points="2520.19,-1916.64 2524.52,-1906.97 2515.11,-1911.83 2520.19,-1916.64"/>
</g>
<!-- e7c2 -->
<g id="node69" class="node">
<title>e7c2</title>
<ellipse fill="blue" stroke="blue" cx="2534.68" cy="-2132.73" rx="145.37" ry="18"/>
<text text-anchor="middle" x="2534.68" y="-2127.3" font-family="Times New Roman,serif" font-size="14.00">chave valor orientado à documentos</text>
</g>
<!-- e7c&#45;&gt;e7c2 -->
<g id="edge69" class="edge">
<title>e7c&#45;&gt;e7c2</title>
<path fill="none" stroke="black" d="M2443.31,-2027.68C2461.28,-2048.34 2490.78,-2082.25 2511.38,-2105.94"/>
<polygon fill="black" stroke="black" points="2508.6,-2108.08 2517.8,-2113.33 2513.88,-2103.49 2508.6,-2108.08"/>
</g>
<!-- e7c3 -->
<g id="node70" class="node">
<title>e7c3</title>
<ellipse fill="blue" stroke="blue" cx="2590.89" cy="-2003.32" rx="78.01" ry="18"/>
<text text-anchor="middle" x="2590.89" y="-1997.89" font-family="Times New Roman,serif" font-size="14.00">família de colunas</text>
</g>
<!-- e7c&#45;&gt;e7c3 -->
<g id="edge70" class="edge">
<title>e7c&#45;&gt;e7c3</title>
<path fill="none" stroke="black" d="M2525.85,-2005.78C2525.91,-2005.78 2525.98,-2005.77 2526.05,-2005.77"/>
<polygon fill="black" stroke="black" points="2514.88,-2009.7 2524.74,-2005.82 2514.61,-2002.71 2514.88,-2009.7"/>
</g>
<!-- e7c4 -->
<g id="node71" class="node">
<title>e7c4</title>
<ellipse fill="blue" stroke="blue" cx="2416.91" cy="-2176.3" rx="34.1" ry="18"/>
<text text-anchor="middle" x="2416.91" y="-2170.88" font-family="Times New Roman,serif" font-size="14.00">grafos</text>
</g>
<!-- e7c&#45;&gt;e7c4 -->
<g id="edge71" class="edge">
<title>e7c&#45;&gt;e7c4</title>
<path fill="none" stroke="black" d="M2426.33,-2027.98C2424.5,-2056.74 2420.96,-2112.45 2418.78,-2146.8"/>
<polygon fill="black" stroke="black" points="2415.31,-2146.27 2418.17,-2156.48 2422.3,-2146.72 2415.31,-2146.27"/>
</g>
<!-- f1 -->
<g id="node73" class="node">
<title>f1</title>
<ellipse fill="yellow" stroke="yellow" cx="1740.87" cy="-516.93" rx="79.51" ry="18"/>
<text text-anchor="middle" x="1740.87" y="-511.51" font-family="Times New Roman,serif" font-size="14.00">Conceitos básicos</text>
</g>
<!-- f&#45;&gt;f1 -->
<g id="edge72" class="edge">
<title>f&#45;&gt;f1</title>
<path fill="none" stroke="black" d="M1503.54,-1091.89C1538.76,-1006.58 1686.17,-649.46 1729.09,-545.46"/>
<polygon fill="black" stroke="black" points="1732.2,-547.1 1732.78,-536.53 1725.73,-544.43 1732.2,-547.1"/>
</g>
<!-- f2 -->
<g id="node74" class="node">
<title>f2</title>
<ellipse fill="yellow" stroke="yellow" cx="1874.04" cy="-773.92" rx="209.74" ry="18"/>
<text text-anchor="middle" x="1874.04" y="-768.49" font-family="Times New Roman,serif" font-size="14.00">Workflow e gerenciamento eletrônico de documentos</text>
</g>
<!-- f&#45;&gt;f2 -->
<g id="edge73" class="edge">
<title>f&#45;&gt;f2</title>
<path fill="none" stroke="black" d="M1516.54,-1091.98C1579.92,-1035.59 1772.16,-864.56 1845.34,-799.45"/>
<polygon fill="black" stroke="black" points="1847.38,-802.32 1852.53,-793.06 1842.73,-797.09 1847.38,-802.32"/>
</g>
</g>
</svg>
